<?xml version="1.0" encoding="UTF-8"?>
<svg xmlns="http://www.w3.org/2000/svg" viewBox="0 0 1024 1024">
  <defs>
    <!-- Diamond polygon: centered at (512, 380), half-diagonal 300 -->
    <clipPath id="diamondClip">
      <polygon points="512,80 812,380 512,680 212,380"/>
    </clipPath>
  </defs>

  <!-- String grid clipped to the diamond -->
  <g clip-path="url(#diamondClip)" stroke="#000000" stroke-width="10">
    <!-- Vertical strings, every 30px -->
    <line x1="242" y1="80" x2="242" y2="680"/>
    <line x1="272" y1="80" x2="272" y2="680"/>
    <line x1="302" y1="80" x2="302" y2="680"/>
    <line x1="332" y1="80" x2="332" y2="680"/>
    <line x1="362" y1="80" x2="362" y2="680"/>
    <line x1="392" y1="80" x2="392" y2="680"/>
    <line x1="422" y1="80" x2="422" y2="680"/>
    <line x1="452" y1="80" x2="452" y2="680"/>
    <line x1="482" y1="80" x2="482" y2="680"/>
    <line x1="512" y1="80" x2="512" y2="680"/>
    <line x1="542" y1="80" x2="542" y2="680"/>
    <line x1="572" y1="80" x2="572" y2="680"/>
    <line x1="602" y1="80" x2="602" y2="680"/>
    <line x1="632" y1="80" x2="632" y2="680"/>
    <line x1="662" y1="80" x2="662" y2="680"/>
    <line x1="692" y1="80" x2="692" y2="680"/>
    <line x1="722" y1="80" x2="722" y2="680"/>
    <line x1="752" y1="80" x2="752" y2="680"/>
    <line x1="782" y1="80" x2="782" y2="680"/>

    <!-- Horizontal strings -->
    <line x1="212" y1="110" x2="812" y2="110"/>
    <line x1="212" y1="140" x2="812" y2="140"/>
    <line x1="212" y1="170" x2="812" y2="170"/>
    <line x1="212" y1="200" x2="812" y2="200"/>
    <line x1="212" y1="230" x2="812" y2="230"/>
    <line x1="212" y1="260" x2="812" y2="260"/>
    <line x1="212" y1="290" x2="812" y2="290"/>
    <line x1="212" y1="320" x2="812" y2="320"/>
    <line x1="212" y1="350" x2="812" y2="350"/>
    <line x1="212" y1="380" x2="812" y2="380"/>
    <line x1="212" y1="410" x2="812" y2="410"/>
    <line x1="212" y1="440" x2="812" y2="440"/>
    <line x1="212" y1="470" x2="812" y2="470"/>
    <line x1="212" y1="500" x2="812" y2="500"/>
    <line x1="212" y1="530" x2="812" y2="530"/>
    <line x1="212" y1="560" x2="812" y2="560"/>
    <line x1="212" y1="590" x2="812" y2="590"/>
    <line x1="212" y1="620" x2="812" y2="620"/>
    <line x1="212" y1="650" x2="812" y2="650"/>
  </g>

  <!-- Diamond outline -->
  <polygon points="512,80 812,380 512,680 212,380"
           fill="none" stroke="#000000" stroke-width="22" stroke-linejoin="round"/>

  <!-- SC wordmark -->
  <text x="512" y="900"
        text-anchor="middle"
        font-family="'Helvetica Neue', 'Arial', sans-serif"
        font-size="180"
        font-weight="700"
        letter-spacing="12"
        fill="#000000">SC</text>
</svg>
